<svg width="124" height="45" viewBox="0 0 124 45" fill="none" xmlns="http://www.w3.org/2000/svg">
<path d="M15.2539 7.5625V36H9.41406V7.5625H15.2539ZM24.0039 7.5625V12.1523H0.800781V7.5625H24.0039ZM35.4297 31.2344V21.8203C35.4297 21.1432 35.319 20.5638 35.0977 20.082C34.8763 19.5872 34.5312 19.2031 34.0625 18.9297C33.6068 18.6562 33.0143 18.5195 32.2852 18.5195C31.6602 18.5195 31.1198 18.6302 30.6641 18.8516C30.2083 19.0599 29.8568 19.3659 29.6094 19.7695C29.362 20.1602 29.2383 20.6224 29.2383 21.1562H23.6133C23.6133 20.2578 23.8216 19.4049 24.2383 18.5977C24.6549 17.7904 25.2604 17.0807 26.0547 16.4688C26.849 15.8438 27.793 15.3555 28.8867 15.0039C29.9935 14.6523 31.2305 14.4766 32.5977 14.4766C34.2383 14.4766 35.6966 14.75 36.9727 15.2969C38.2487 15.8438 39.2513 16.6641 39.9805 17.7578C40.7227 18.8516 41.0938 20.2188 41.0938 21.8594V30.9023C41.0938 32.0612 41.1654 33.0117 41.3086 33.7539C41.4518 34.4831 41.6602 35.1211 41.9336 35.668V36H36.25C35.9766 35.4271 35.7682 34.7109 35.625 33.8516C35.4948 32.9792 35.4297 32.1068 35.4297 31.2344ZM36.1719 23.1289L36.2109 26.3125H33.0664C32.3242 26.3125 31.6797 26.3971 31.1328 26.5664C30.5859 26.7357 30.1367 26.9766 29.7852 27.2891C29.4336 27.5885 29.1732 27.9401 29.0039 28.3438C28.8477 28.7474 28.7695 29.1901 28.7695 29.6719C28.7695 30.1536 28.8802 30.5898 29.1016 30.9805C29.3229 31.3581 29.6419 31.6576 30.0586 31.8789C30.4753 32.0872 30.9635 32.1914 31.5234 32.1914C32.3698 32.1914 33.1055 32.0221 33.7305 31.6836C34.3555 31.3451 34.8372 30.9284 35.1758 30.4336C35.5273 29.9388 35.7096 29.4701 35.7227 29.0273L37.207 31.4102C36.9987 31.944 36.7122 32.4974 36.3477 33.0703C35.9961 33.6432 35.5469 34.1836 35 34.6914C34.4531 35.1862 33.7956 35.5964 33.0273 35.9219C32.2591 36.2344 31.3477 36.3906 30.293 36.3906C28.9518 36.3906 27.7344 36.1237 26.6406 35.5898C25.5599 35.043 24.7005 34.2943 24.0625 33.3438C23.4375 32.3802 23.125 31.2865 23.125 30.0625C23.125 28.9557 23.3333 27.9727 23.75 27.1133C24.1667 26.2539 24.7786 25.5312 25.5859 24.9453C26.4062 24.3464 27.4284 23.8971 28.6523 23.5977C29.8763 23.2852 31.2956 23.1289 32.9102 23.1289H36.1719ZM51.0547 19.4766V36H45.4297V14.8672H50.7227L51.0547 19.4766ZM57.4219 14.7305L57.3242 19.9453C57.0508 19.9062 56.7188 19.8737 56.3281 19.8477C55.9505 19.8086 55.6055 19.7891 55.293 19.7891C54.4987 19.7891 53.8086 19.8932 53.2227 20.1016C52.6497 20.2969 52.168 20.5898 51.7773 20.9805C51.3997 21.3711 51.1133 21.8464 50.918 22.4062C50.7357 22.9661 50.6315 23.6042 50.6055 24.3203L49.4727 23.9688C49.4727 22.6016 49.6094 21.3451 49.8828 20.1992C50.1562 19.0404 50.5534 18.0312 51.0742 17.1719C51.6081 16.3125 52.2591 15.6484 53.0273 15.1797C53.7956 14.7109 54.6745 14.4766 55.6641 14.4766C55.9766 14.4766 56.2956 14.5026 56.6211 14.5547C56.9466 14.5938 57.2135 14.6523 57.4219 14.7305ZM69.4141 36.3906C67.7734 36.3906 66.3021 36.1302 65 35.6094C63.6979 35.0755 62.5911 34.3398 61.6797 33.4023C60.7812 32.4648 60.0911 31.3776 59.6094 30.1406C59.1276 28.8906 58.8867 27.5625 58.8867 26.1562V25.375C58.8867 23.7734 59.1146 22.3086 59.5703 20.9805C60.026 19.6523 60.6771 18.5 61.5234 17.5234C62.3828 16.5469 63.4245 15.7982 64.6484 15.2773C65.8724 14.7435 67.2526 14.4766 68.7891 14.4766C70.2865 14.4766 71.6146 14.724 72.7734 15.2188C73.9323 15.7135 74.9023 16.4167 75.6836 17.3281C76.4779 18.2396 77.0768 19.3333 77.4805 20.6094C77.8841 21.8724 78.0859 23.2786 78.0859 24.8281V27.1719H61.2891V23.4219H72.5586V22.9922C72.5586 22.2109 72.4154 21.5143 72.1289 20.9023C71.8555 20.2773 71.4388 19.7826 70.8789 19.418C70.319 19.0534 69.6029 18.8711 68.7305 18.8711C67.9883 18.8711 67.3503 19.0339 66.8164 19.3594C66.2826 19.6849 65.8464 20.1406 65.5078 20.7266C65.1823 21.3125 64.9349 22.0026 64.7656 22.7969C64.6094 23.5781 64.5312 24.4375 64.5312 25.375V26.1562C64.5312 27.0026 64.6484 27.7839 64.8828 28.5C65.1302 29.2161 65.4753 29.8346 65.918 30.3555C66.3737 30.8763 66.9206 31.2799 67.5586 31.5664C68.2096 31.8529 68.9453 31.9961 69.7656 31.9961C70.7812 31.9961 71.7253 31.8008 72.5977 31.4102C73.4831 31.0065 74.2448 30.401 74.8828 29.5938L77.6172 32.5625C77.1745 33.2005 76.569 33.8125 75.8008 34.3984C75.0456 34.9844 74.1341 35.4661 73.0664 35.8438C71.9987 36.2083 70.7812 36.3906 69.4141 36.3906ZM91.0156 36.3906C89.375 36.3906 87.9036 36.1302 86.6016 35.6094C85.2995 35.0755 84.1927 34.3398 83.2812 33.4023C82.3828 32.4648 81.6927 31.3776 81.2109 30.1406C80.7292 28.8906 80.4883 27.5625 80.4883 26.1562V25.375C80.4883 23.7734 80.7161 22.3086 81.1719 20.9805C81.6276 19.6523 82.2786 18.5 83.125 17.5234C83.9844 16.5469 85.026 15.7982 86.25 15.2773C87.474 14.7435 88.8542 14.4766 90.3906 14.4766C91.888 14.4766 93.2161 14.724 94.375 15.2188C95.5339 15.7135 96.5039 16.4167 97.2852 17.3281C98.0794 18.2396 98.6784 19.3333 99.082 20.6094C99.4857 21.8724 99.6875 23.2786 99.6875 24.8281V27.1719H82.8906V23.4219H94.1602V22.9922C94.1602 22.2109 94.0169 21.5143 93.7305 20.9023C93.457 20.2773 93.0404 19.7826 92.4805 19.418C91.9206 19.0534 91.2044 18.8711 90.332 18.8711C89.5898 18.8711 88.9518 19.0339 88.418 19.3594C87.8841 19.6849 87.4479 20.1406 87.1094 20.7266C86.7839 21.3125 86.5365 22.0026 86.3672 22.7969C86.2109 23.5781 86.1328 24.4375 86.1328 25.375V26.1562C86.1328 27.0026 86.25 27.7839 86.4844 28.5C86.7318 29.2161 87.0768 29.8346 87.5195 30.3555C87.9753 30.8763 88.5221 31.2799 89.1602 31.5664C89.8112 31.8529 90.5469 31.9961 91.3672 31.9961C92.3828 31.9961 93.3268 31.8008 94.1992 31.4102C95.0846 31.0065 95.8464 30.401 96.4844 29.5938L99.2188 32.5625C98.776 33.2005 98.1706 33.8125 97.4023 34.3984C96.6471 34.9844 95.7357 35.4661 94.668 35.8438C93.6003 36.2083 92.3828 36.3906 91.0156 36.3906ZM115.371 44.125V19.1836L116.094 14.8672H121.035V44.125H115.371ZM102.012 25.6484V25.2383C102.012 23.6237 102.188 22.1589 102.539 20.8438C102.904 19.5156 103.438 18.3828 104.141 17.4453C104.844 16.4948 105.703 15.7656 106.719 15.2578C107.747 14.737 108.932 14.4766 110.273 14.4766C111.562 14.4766 112.676 14.737 113.613 15.2578C114.551 15.7786 115.339 16.5143 115.977 17.4648C116.628 18.4154 117.148 19.5352 117.539 20.8242C117.93 22.1133 118.229 23.526 118.438 25.0625V25.9609C118.242 27.4323 117.943 28.7995 117.539 30.0625C117.148 31.3255 116.628 32.4323 115.977 33.3828C115.339 34.3333 114.544 35.0755 113.594 35.6094C112.656 36.1302 111.536 36.3906 110.234 36.3906C108.919 36.3906 107.747 36.1237 106.719 35.5898C105.703 35.043 104.844 34.2878 104.141 33.3242C103.438 32.3607 102.904 31.2279 102.539 29.9258C102.188 28.6107 102.012 27.1849 102.012 25.6484ZM107.637 25.2383V25.6484C107.637 26.5208 107.708 27.3411 107.852 28.1094C107.995 28.8646 108.223 29.5352 108.535 30.1211C108.861 30.707 109.277 31.1693 109.785 31.5078C110.293 31.8333 110.918 31.9961 111.66 31.9961C112.689 31.9961 113.516 31.7747 114.141 31.332C114.779 30.8763 115.247 30.2578 115.547 29.4766C115.859 28.6953 116.042 27.8034 116.094 26.8008V24.2422C116.055 23.4219 115.944 22.6862 115.762 22.0352C115.592 21.3711 115.332 20.8047 114.98 20.3359C114.642 19.8672 114.199 19.5091 113.652 19.2617C113.118 19.0013 112.467 18.8711 111.699 18.8711C110.97 18.8711 110.345 19.0339 109.824 19.3594C109.303 19.6849 108.88 20.1406 108.555 20.7266C108.242 21.2995 108.008 21.9701 107.852 22.7383C107.708 23.5065 107.637 24.3398 107.637 25.2383Z" fill="#24CCA8"/>
</svg>
